<svg width="603" height="128" viewBox="0 0 603 128" fill="none" xmlns="http://www.w3.org/2000/svg">
<ellipse cx="254" cy="90.5" rx="35" ry="6.5" fill="#3B82F6"/>
<foreignObject x="-19.9064" y="-0.539835" width="154.504" height="123.726"><div xmlns="http://www.w3.org/1999/xhtml" style="backdrop-filter:blur(12.21px);clip-path:url(#bgblur_0_331_35_clip_path);height:100%;width:100%"></div></foreignObject><g data-figma-bg-blur-radius="24.4296">
<path fill-rule="evenodd" clip-rule="evenodd" d="M42.0162 24.1873C59.7194 24.1873 74.5194 36.6151 78.169 53.2222C78.169 53.2222 85.3582 49.2992 95.403 49.2992C105.448 49.2992 109.822 53.2222 109.822 53.2222V61.2034C99.4384 56.8509 90.1865 57.0763 79.0244 60.483C79.029 60.7226 79.0324 60.9627 79.0324 61.2034C79.0324 81.6469 62.4597 98.2196 42.0162 98.2196C21.5727 98.2196 5 81.6469 5 61.2034C5 40.76 21.5727 24.1873 42.0162 24.1873ZM14.0346 61.2034C14.0346 45.7498 26.5625 33.2219 42.0162 33.2219C57.4699 33.2219 69.9977 45.7498 69.9977 61.2034C69.9977 76.6571 57.4699 89.185 42.0162 89.185C26.5625 89.185 14.0346 76.6571 14.0346 61.2034Z" fill="#3B82F6"/>
<path d="M42.4164 97.8349C48.9142 97.7243 54.0683 96.2585 60.8788 92.3462C67.3595 87.9691 68.6647 87.2698 73.6137 79.6948C77.4001 73.3424 78.7437 65.8689 78.6549 61.2034C78.6543 60.9594 78.65 60.7214 78.6446 60.4902L78.6379 60.205L78.9135 60.1196C79.6898 59.8788 80.3746 59.6751 80.9517 59.5042C84.9182 58.4301 85.3747 58.3947 91.1709 57.7515C96.9956 57.3356 100.613 57.8967 105.481 59.3786C106.557 59.7217 108.111 60.2616 109.896 61.0269L109.63 61.2034C109.648 58.8461 109.662 56.0513 109.67 53.2222L109.721 53.3348C105.47 50.1209 99.7371 49.5982 96.9392 49.5218C96.4314 49.5093 95.9277 49.5054 95.403 49.51C90.1532 49.5084 84.5684 50.7133 81.2589 51.9598C80.1241 52.3741 79.2498 52.744 78.5832 53.0507C78.3033 53.18 78.1744 53.2336 78.1677 53.2197C78.1677 53.2197 78.1677 53.2197 78.1677 53.2197C78.149 53.208 78.348 53.0787 78.701 52.9066C80.4409 52.0611 83.1399 50.9851 86.4615 50.1603C90.5239 49.2125 92.2953 49.1433 95.403 49.1062C97.0619 49.1266 99.1099 49.169 102.059 49.7351C105.189 50.3842 107.809 51.3238 110.017 53.0044L110.115 53.0928L110.114 53.2222C110.141 55.797 110.164 58.3295 110.168 61.2034L110.166 61.7254L109.688 61.5228C107.681 60.6883 105.454 59.8848 102.804 59.2384C93.5904 57.5001 90.7185 57.8775 79.1468 60.8842L79.4438 60.475C79.4458 60.7129 79.4466 60.9556 79.4437 61.2034C79.4371 61.7775 79.4166 62.3687 79.3796 62.9774C77.2743 77.0119 76.5354 79.3298 66.6548 89.6402C60.2859 95.3993 50.465 98.9559 42.0162 98.7476C36.1882 98.7297 31.1775 97.2807 27.9123 95.9457C19.8866 92.8863 10.0707 84.7437 6.35641 72.8304C5.21553 69.2925 4.52917 65.3296 4.52652 61.2034C4.38856 51.6697 8.5585 41.4829 15.3595 34.8497C21.5555 28.2985 32.7243 23.576 42.0162 23.9061C46.7638 23.9278 50.8778 24.8963 53.6958 25.8621C61.8424 29.0824 63.7654 30.4671 69.7114 36.4193C73.0375 39.9682 76.4732 45.9173 77.7844 51.4292C78.417 54.1991 78.2418 53.5695 77.4623 50.833C76.2509 46.8452 74.6377 43.7946 73.4516 42.0169C70.989 38.5278 69.8721 37.0762 65.9528 33.3985C61.8754 29.8681 59.4065 28.9523 56.5964 27.6341C53.9373 26.8448 53.9928 25.1784 42.0162 24.536C40.8062 24.5418 39.4847 24.6064 38.0392 24.7714C22.0399 27.1312 15.9317 35.3783 12.4191 39.8484C9.43497 43.7139 5.26987 52.485 5.46468 61.2034C5.46318 63.1023 5.6132 64.9591 5.88487 66.7052C6.5479 71.5436 9.08276 78.7768 13.7506 84.3257C18.2925 89.9817 24.5293 93.5783 28.2527 94.9893C35.6554 97.5337 35.943 97.4422 42.0162 97.8318C42.147 97.8336 42.2804 97.8346 42.4164 97.8349ZM52.2019 86.862C55.774 85.4655 58.2413 83.5797 61.5499 80.3745C64.6666 76.9882 65.3579 76.5028 67.5426 71.6395C69.0477 67.9542 69.6437 63.9622 69.6212 61.2034C69.622 60.2522 69.5677 59.4543 69.4964 58.8496C69.1523 56.5057 69.4278 56.1864 68.4477 52.9386C67.344 49.7349 66.4048 47.8888 64.81 45.386C63.4825 42.6403 56.3762 36.5785 53.0616 35.6946C49.992 34.4205 46.2756 33.5354 43.987 33.3721C43.272 33.3103 42.7181 33.2803 42.2843 33.2585C42.1012 33.2494 42.0162 33.2344 42.0162 33.2191C42.0162 33.2191 42.0162 33.2191 42.0162 33.2191C42.0162 33.2002 42.1482 33.1809 42.3841 33.1814C43.5227 33.184 45.2374 33.2449 47.2391 33.5517C50.9356 34.2739 51.3923 34.3959 55.9394 36.6884C60.3083 39.2636 62.897 41.2841 66.1278 46.3784C68.8286 51.585 70.1349 52.946 70.3939 61.2034C70.3914 61.3123 70.3883 61.4221 70.3844 61.533C69.4987 69.9277 69.4711 71.1775 64.8854 78.365C59.9528 85.6961 49.067 89.6449 43.9565 89.5898C43.3312 89.6339 42.6926 89.6593 42.0162 89.6621C37.1581 89.7287 30.9087 88.2877 25.678 84.5128C19.6418 80.4308 14.3001 72.2899 13.7186 64.166C13.6315 63.2243 13.5872 62.2313 13.5982 61.2034C13.3649 53.3771 18.2442 44.7873 21.6487 41.7332C25.4284 38.1756 26.5544 37.4564 31.0467 35.2915C33.6671 34.1096 37.5881 33.1772 40.9316 33.1876C42.6127 33.2036 42.2221 33.257 40.5499 33.3528C38.0968 33.5256 36.1113 33.9278 34.9145 34.3304C32.5387 35.1847 31.553 35.572 28.7071 36.9569C25.895 38.4375 24.8836 39.6135 23.4942 40.802C22.3596 42.1829 21.2484 41.3938 16.898 49.723C14.8675 54.3445 14.5084 58.2286 14.5146 61.2034C14.5398 63.787 14.8748 65.7455 15.2438 67.3356C15.8632 70.793 18.9908 77.7679 23.478 81.5267C27.0454 85.3015 36.4817 89.13 42.0162 88.6598C42.714 88.6545 43.3268 88.6228 43.862 88.5797C48.528 88.0183 48.5686 88.046 52.2019 86.862Z" fill="#3B82F6"/>
</g>
<path d="M183.158 26.7593C191.355 26.7593 197.944 29.2906 202.926 34.3531C207.989 39.3354 210.52 46.3265 210.52 55.3266V94.5013H193.645V57.6168C193.645 52.3936 192.319 48.4158 189.667 45.6837C187.015 42.8711 183.399 41.4648 178.819 41.4648C174.238 41.4648 170.582 42.8711 167.85 45.6837C165.198 48.4158 163.872 52.3936 163.872 57.6168V94.5013H146.997V57.6168C146.997 52.3936 145.671 48.4158 143.019 45.6837C140.367 42.8711 136.751 41.4648 132.171 41.4648C127.51 41.4648 123.814 42.8711 121.081 45.6837C118.43 48.4158 117.104 52.3936 117.104 57.6168V94.5013H100.229V27.7236L117.104 35.7996C119.273 32.9871 122.046 30.7772 125.421 29.17C128.876 27.5629 132.653 26.7593 136.751 26.7593C141.975 26.7593 146.635 27.8843 150.734 30.1343C154.832 32.304 158.006 35.438 160.256 39.5362C162.426 35.6791 165.56 32.5853 169.658 30.2549C173.837 27.9245 178.337 26.7593 183.158 26.7593Z" fill="#3B82F6"/>
<path d="M340.405 26.7593C348.36 26.7593 354.789 29.2906 359.691 34.3531C364.593 39.3354 367.044 46.3265 367.044 55.3266V94.5013H350.168V57.6168C350.168 52.3132 348.842 48.2551 346.191 45.4426C343.539 42.5497 339.923 41.1032 335.342 41.1032C330.681 41.1032 326.985 42.5497 324.253 45.4426C321.601 48.2551 320.275 52.3132 320.275 57.6168V94.5013H303.4V27.7236H320.275V36.0407C322.525 33.1478 325.378 30.8977 328.833 29.2906C332.369 27.6031 336.226 26.7593 340.405 26.7593Z" fill="#3B82F6"/>
<path d="M409.248 26.6388C414.23 26.6388 418.609 27.6432 422.386 29.6522C426.163 31.5808 429.136 34.1121 431.306 37.246V27.7236H448.302V94.9834C448.302 101.171 447.056 106.676 444.565 111.497C442.074 116.399 438.337 120.256 433.355 123.069C428.373 125.962 422.346 127.408 415.275 127.408C405.792 127.408 397.997 125.198 391.89 120.778C385.863 116.359 382.448 110.332 381.645 102.698H398.399C399.283 105.751 401.172 108.162 404.065 109.93C407.038 111.778 410.614 112.702 414.792 112.702C419.694 112.702 423.672 111.216 426.726 108.243C429.779 105.35 431.306 100.93 431.306 94.9834V84.6172C429.136 87.7512 426.123 90.3628 422.266 92.4521C418.489 94.5415 414.149 95.5861 409.248 95.5861C403.623 95.5861 398.48 94.1397 393.819 91.2468C389.158 88.3539 385.462 84.2958 382.729 79.0725C380.078 73.7689 378.752 67.7018 378.752 60.8714C378.752 54.1213 380.078 48.1346 382.729 42.9113C385.462 37.688 389.118 33.6701 393.698 30.8576C398.359 28.045 403.542 26.6388 409.248 26.6388ZM431.306 61.1124C431.306 57.0142 430.502 53.5186 428.895 50.6257C427.288 47.6524 425.118 45.4024 422.386 43.8756C419.654 42.2684 416.721 41.4648 413.587 41.4648C410.453 41.4648 407.56 42.2282 404.908 43.7551C402.256 45.2819 400.087 47.5319 398.399 50.5051C396.792 53.398 395.989 56.8534 395.989 60.8714C395.989 64.8893 396.792 68.425 398.399 71.4786C400.087 74.4519 402.256 76.7421 404.908 78.3493C407.64 79.9564 410.533 80.76 413.587 80.76C416.721 80.76 419.654 79.9966 422.386 78.4698C425.118 76.8626 427.288 74.6126 428.895 71.7197C430.502 68.7465 431.306 65.2107 431.306 61.1124Z" fill="#3B82F6"/>
<path d="M472.257 95.345C469.203 95.345 466.672 94.4209 464.663 92.5727C462.734 90.6441 461.77 88.2735 461.77 85.461C461.77 82.6484 462.734 80.318 464.663 78.4698C466.672 76.5412 469.203 75.5769 472.257 75.5769C475.23 75.5769 477.681 76.5412 479.609 78.4698C481.538 80.318 482.502 82.6484 482.502 85.461C482.502 88.2735 481.538 90.6441 479.609 92.5727C477.681 94.4209 475.23 95.345 472.257 95.345Z" fill="#3B82F6"/>
<path d="M512.97 27.7236V94.5013H496.095V27.7236H512.97Z" fill="#3B82F6"/>
<path d="M566.648 26.7593C574.603 26.7593 581.032 29.2906 585.934 34.3531C590.836 39.3354 593.286 46.3265 593.286 55.3266V94.5013H576.411V57.6168C576.411 52.3132 575.085 48.2551 572.434 45.4426C569.782 42.5497 566.166 41.1032 561.585 41.1032C556.924 41.1032 553.228 42.5497 550.496 45.4426C547.844 48.2551 546.518 52.3132 546.518 57.6168V94.5013H529.643V27.7236H546.518V36.0407C548.768 33.1478 551.621 30.8977 555.076 29.2906C558.612 27.6031 562.469 26.7593 566.648 26.7593Z" fill="#3B82F6"/>
<path d="M132.834 77.7064C130.954 77.7064 129.262 77.2967 127.758 76.4771C126.254 75.6342 125.068 74.4518 124.199 72.9299C123.353 71.4079 122.93 69.6518 122.93 67.6616C122.93 65.6714 123.364 63.9153 124.234 62.3934C125.127 60.8715 126.337 59.7007 127.864 58.8812C129.391 58.0383 131.095 57.6168 132.974 57.6168C134.854 57.6168 136.558 58.0383 138.085 58.8812C139.612 59.7007 140.811 60.8715 141.68 62.3934C142.573 63.9153 143.019 65.6714 143.019 67.6616C143.019 69.6518 142.561 71.4079 141.645 72.9299C140.752 74.4518 139.53 75.6342 137.979 76.4771C136.452 77.2967 134.737 77.7064 132.834 77.7064ZM132.834 73.4216C133.726 73.4216 134.561 73.2108 135.336 72.7894C136.135 72.3445 136.769 71.6889 137.239 70.8226C137.709 69.9562 137.944 68.9026 137.944 67.6616C137.944 65.8119 137.451 64.3953 136.464 63.4119C135.5 62.4051 134.314 61.9017 132.904 61.9017C131.494 61.9017 130.308 62.4051 129.344 63.4119C128.404 64.3953 127.934 65.8119 127.934 67.6616C127.934 69.5114 128.393 70.9396 129.309 71.9465C130.249 72.9299 131.424 73.4216 132.834 73.4216Z" fill="#3B82F6"/>
<path d="M179.481 77.7064C177.602 77.7064 175.91 77.2967 174.406 76.4771C172.902 75.6342 171.716 74.4518 170.846 72.9299C170.001 71.4079 169.578 69.6518 169.578 67.6616C169.578 65.6714 170.012 63.9153 170.882 62.3934C171.775 60.8715 172.985 59.7007 174.512 58.8812C176.039 58.0383 177.743 57.6168 179.622 57.6168C181.502 57.6168 183.206 58.0383 184.733 58.8812C186.26 59.7007 187.459 60.8715 188.328 62.3934C189.221 63.9153 189.667 65.6714 189.667 67.6616C189.667 69.6518 189.209 71.4079 188.293 72.9299C187.4 74.4518 186.178 75.6342 184.627 76.4771C183.1 77.2967 181.385 77.7064 179.481 77.7064ZM179.481 73.4216C180.374 73.4216 181.208 73.2108 181.984 72.7894C182.783 72.3445 183.417 71.6889 183.887 70.8226C184.357 69.9562 184.592 68.9026 184.592 67.6616C184.592 65.8119 184.099 64.3953 183.112 63.4119C182.148 62.4051 180.962 61.9017 179.552 61.9017C178.142 61.9017 176.956 62.4051 175.992 63.4119C175.052 64.3953 174.582 65.8119 174.582 67.6616C174.582 69.5114 175.041 70.9397 175.957 71.9465C176.897 72.9299 178.072 73.4216 179.481 73.4216Z" fill="#3B82F6"/>
<path d="M179.481 73.4216C180.374 73.4216 181.208 73.2108 181.984 72.7894C182.783 72.3445 183.417 71.6889 183.887 70.8226C184.357 69.9562 184.592 68.9026 184.592 67.6616C184.592 65.8119 184.099 64.3953 183.112 63.4119C182.148 62.4051 180.962 61.9017 179.552 61.9017C178.142 61.9017 176.956 62.4051 175.992 63.4119C175.052 64.3953 174.582 65.8119 174.582 67.6616C174.582 69.5114 175.041 70.9397 175.957 71.9465C176.897 72.9299 178.072 73.4216 179.481 73.4216Z" fill="#3B82F6"/>
<path d="M132.834 73.4216C133.726 73.4216 134.561 73.2108 135.336 72.7894C136.135 72.3445 136.769 71.6889 137.239 70.8226C137.709 69.9562 137.944 68.9026 137.944 67.6616C137.944 65.8119 137.451 64.3953 136.464 63.4119C135.5 62.4051 134.314 61.9017 132.904 61.9017C131.494 61.9017 130.308 62.4051 129.344 63.4119C128.404 64.3953 127.934 65.8119 127.934 67.6616C127.934 69.5114 128.393 70.9396 129.309 71.9465C130.249 72.9299 131.424 73.4216 132.834 73.4216Z" fill="#3B82F6"/>
<path d="M252.839 24.2689C253.043 23.9708 253.185 23.6352 253.258 23.2816C253.331 22.9281 253.333 22.5636 253.265 22.2092C253.196 21.8548 253.057 21.5176 252.857 21.2171C252.657 20.9166 252.4 20.6587 252.099 20.4585C251.799 20.2582 251.462 20.1195 251.107 20.0505C250.753 19.9814 250.388 19.9833 250.035 20.056C249.681 20.1287 249.346 20.2709 249.047 20.4742C248.749 20.6776 248.494 20.9381 248.297 21.2406L241.018 32.1599C240.625 32.7623 240.487 33.4951 240.632 34.1991C240.776 34.9032 241.193 35.5217 241.791 35.9204C242.389 36.3191 243.12 36.4658 243.826 36.3287C244.532 36.1917 245.155 35.7818 245.56 35.1882L252.839 24.2689ZM263.759 24.2689C263.962 23.9708 264.105 23.6352 264.178 23.2816C264.251 22.9281 264.253 22.5636 264.184 22.2092C264.115 21.8548 263.977 21.5176 263.776 21.2171C263.576 20.9166 263.319 20.6587 263.018 20.4585C262.718 20.2582 262.381 20.1195 262.027 20.0505C261.672 19.9814 261.308 19.9833 260.954 20.056C260.6 20.1287 260.265 20.2709 259.967 20.4742C259.668 20.6776 259.413 20.9381 259.216 21.2406L251.937 32.1599C251.733 32.458 251.591 32.7936 251.518 33.1472C251.445 33.5007 251.443 33.8652 251.512 34.2196C251.581 34.574 251.719 34.9112 251.919 35.2117C252.119 35.5122 252.377 35.7701 252.677 35.9703C252.978 36.1706 253.315 36.3093 253.669 36.3783C254.023 36.4474 254.388 36.4455 254.741 36.3728C255.095 36.3001 255.431 36.1579 255.729 35.9546C256.027 35.7512 256.282 35.4907 256.479 35.1882L263.759 24.2689ZM274.678 24.2689C274.881 23.9708 275.024 23.6352 275.097 23.2816C275.17 22.9281 275.172 22.5636 275.103 22.2092C275.034 21.8548 274.896 21.5176 274.696 21.2171C274.496 20.9166 274.238 20.6587 273.938 20.4585C273.637 20.2582 273.3 20.1195 272.946 20.0505C272.591 19.9814 272.227 19.9833 271.873 20.056C271.52 20.1287 271.184 20.2709 270.886 20.4742C270.587 20.6776 270.332 20.9381 270.136 21.2406L262.856 32.1599C262.653 32.458 262.51 32.7936 262.437 33.1472C262.364 33.5007 262.362 33.8652 262.431 34.2196C262.5 34.574 262.638 34.9112 262.838 35.2117C263.038 35.5122 263.296 35.7701 263.596 35.9703C263.897 36.1706 264.234 36.3093 264.588 36.3783C264.943 36.4474 265.307 36.4455 265.661 36.3728C266.014 36.3001 266.35 36.1579 266.648 35.9546C266.947 35.7512 267.202 35.4907 267.398 35.1882L274.678 24.2689ZM232.089 41.8634L226 47.9527V73.7112C226 78.2965 227.821 82.6939 231.064 85.9362C234.306 89.1785 238.704 91 243.289 91H265.127C269.713 91 274.11 89.1785 277.352 85.9362C280.595 82.6939 282.416 78.2965 282.416 73.7112V69.1615H285.146C288.283 69.1615 291.292 67.9152 293.51 65.6968C295.729 63.4784 296.975 60.4697 296.975 57.3324C296.975 54.1951 295.729 51.1863 293.51 48.9679C291.292 46.7495 288.283 45.5032 285.146 45.5032H281.834C280.946 43.4795 279.049 41.8634 276.327 41.8634H232.089Z" fill="#FDC700"/>
<defs>
<clipPath id="bgblur_0_331_35_clip_path" transform="translate(19.9064 0.539835)"><path fill-rule="evenodd" clip-rule="evenodd" d="M42.0162 24.1873C59.7194 24.1873 74.5194 36.6151 78.169 53.2222C78.169 53.2222 85.3582 49.2992 95.403 49.2992C105.448 49.2992 109.822 53.2222 109.822 53.2222V61.2034C99.4384 56.8509 90.1865 57.0763 79.0244 60.483C79.029 60.7226 79.0324 60.9627 79.0324 61.2034C79.0324 81.6469 62.4597 98.2196 42.0162 98.2196C21.5727 98.2196 5 81.6469 5 61.2034C5 40.76 21.5727 24.1873 42.0162 24.1873ZM14.0346 61.2034C14.0346 45.7498 26.5625 33.2219 42.0162 33.2219C57.4699 33.2219 69.9977 45.7498 69.9977 61.2034C69.9977 76.6571 57.4699 89.185 42.0162 89.185C26.5625 89.185 14.0346 76.6571 14.0346 61.2034Z"/>
</clipPath></defs>
</svg>
